<svg xmlns="http://www.w3.org/2000/svg" viewBox="0 0 620 430" fill="none">
  <defs>
    <linearGradient id="rose" x1="0" y1="0" x2="1" y2="1"><stop stop-color="#C9828D"/><stop offset="1" stop-color="#9F5E6A"/></linearGradient>
    <linearGradient id="tulip" x1="0" y1="0" x2="1" y2="1"><stop stop-color="#D89AA0"/><stop offset="1" stop-color="#B56D79"/></linearGradient>
    <linearGradient id="leaf" x1="0" y1="0" x2="1" y2="1"><stop stop-color="#809A86"/><stop offset="1" stop-color="#4F6E5A"/></linearGradient>
    <radialGradient id="petal"><stop stop-color="#FFFDF7"/><stop offset="1" stop-color="#E9E5DA"/></radialGradient>
  </defs>
  <!-- graceful stems -->
  <path d="M55 395C170 300 205 205 330 120C420 58 515 46 585 25" stroke="#6F8875" stroke-width="5" stroke-linecap="round"/>
  <path d="M165 400C250 300 330 255 470 170" stroke="#829889" stroke-width="4" stroke-linecap="round"/>
  <path d="M245 360C290 250 380 160 535 85" stroke="#8CA08D" stroke-width="3" stroke-linecap="round"/>

  <!-- leaves -->
  <path d="M120 335C72 315 65 270 73 246C112 252 144 286 120 335Z" fill="url(#leaf)"/>
  <path d="M195 292C151 281 136 245 139 220C179 226 207 254 195 292Z" fill="url(#leaf)"/>
  <path d="M284 230C241 215 232 176 240 151C279 163 304 195 284 230Z" fill="url(#leaf)"/>
  <path d="M370 173C334 160 324 126 332 102C367 113 389 141 370 173Z" fill="url(#leaf)"/>
  <path d="M442 130C406 116 401 84 407 62C442 71 463 99 442 130Z" fill="url(#leaf)"/>

  <!-- rose -->
  <g transform="translate(86 280)">
    <circle r="48" fill="url(#rose)" opacity=".98"/>
    <path d="M-32 5C-22-35 25-38 35-4C41 18 15 35-4 28C-25 21-40 17-32 5Z" fill="#E6A7AF"/>
    <path d="M-16 9C-10-20 20-20 24 4C26 20 5 25-6 19C-17 13-22 16-16 9Z" fill="#F3C3C8"/>
    <circle r="8" fill="#A45E69"/>
  </g>

  <!-- tulips -->
  <g transform="translate(222 180)">
    <path d="M0 0C-24-35-15-73 0-88C16-72 28-36 0 0Z" fill="url(#tulip)"/>
    <path d="M0 0C-5-37 13-68 30-80C42-52 30-18 0 0Z" fill="#DDA0A7"/>
    <path d="M0 0C-25-18-38-48-30-74C-3-65 13-35 0 0Z" fill="#C57B86"/>
  </g>
  <g transform="translate(335 110) scale(.88)">
    <path d="M0 0C-24-35-15-73 0-88C16-72 28-36 0 0Z" fill="url(#tulip)"/>
    <path d="M0 0C-5-37 13-68 30-80C42-52 30-18 0 0Z" fill="#E4A8AD"/>
    <path d="M0 0C-25-18-38-48-30-74C-3-65 13-35 0 0Z" fill="#BE707C"/>
  </g>
  <g transform="translate(475 65) scale(.72)">
    <path d="M0 0C-24-35-15-73 0-88C16-72 28-36 0 0Z" fill="url(#tulip)"/>
    <path d="M0 0C-5-37 13-68 30-80C42-52 30-18 0 0Z" fill="#E4A8AD"/>
    <path d="M0 0C-25-18-38-48-30-74C-3-65 13-35 0 0Z" fill="#BE707C"/>
  </g>

  <!-- baby's breath branches -->
  <g stroke="#9EAE9B" stroke-width="2.4" stroke-linecap="round">
    <path d="M240 360L180 210M205 290l-46-34M208 275l35-48M180 210l-18-58M162 152l-27-22"/>
    <path d="M360 330L315 210M330 255l-42-35M318 218l34-35M315 210l-5-52M310 158l-28-27"/>
    <path d="M505 235L450 145M472 182l-37-20M456 155l21-36"/>
  </g>
  <g fill="url(#petal)" stroke="#D5D0C4" stroke-width="1">
    <g transform="translate(180 210)"><circle r="9"/><circle cx="-21" cy="46" r="8"/><circle cx="25" cy="-48" r="8"/><circle cx="-18" cy="-58" r="8"/><circle cx="-45" cy="-80" r="7"/></g>
    <g transform="translate(315 210)"><circle r="9"/><circle cx="-27" cy="10" r="8"/><circle cx="15" cy="45" r="8"/><circle cx="34" cy="-27" r="8"/><circle cx="-5" cy="-52" r="7"/><circle cx="-33" cy="-79" r="7"/></g>
    <g transform="translate(450 145)"><circle r="9"/><circle cx="-15" cy="17" r="8"/><circle cx="22" cy="37" r="8"/><circle cx="6" cy="-32" r="8"/><circle cx="27" cy="-54" r="7"/></g>
  </g>
  <g fill="#D2C38D"><circle cx="180" cy="210" r="2.8"/><circle cx="315" cy="210" r="2.8"/><circle cx="450" cy="145" r="2.8"/></g>
</svg>
